<svg width="85" height="38" viewBox="0 0 85 38" fill="none" xmlns="http://www.w3.org/2000/svg">
<path fill-rule="evenodd" clip-rule="evenodd" d="M0 11.7373V17.6075H17.1713C19.1672 17.6075 21.7171 15.762 21.7171 12.709C21.7171 11.4811 22.1868 10.6801 20.7436 9.05597L18.5472 6.45357C17.2887 5.27952 18.6976 5.27952 19.7547 5.27952H27.0046V17.6075H32.7542V5.27952H40.5033V0H15.4102C12.3572 0 10.8644 2.93141 10.9484 4.45768C11.0328 5.98394 11.3136 7.90419 13.8505 10.211C16.1648 12.3145 12.7048 11.7373 12.3572 11.7373H0ZM53.217 0H43.9415L38.7418 17.608H44.5285L45.4673 15.1425H51.5724L52.4787 17.608H58.1471L53.217 0ZM46.7592 10.9154L48.7551 4.45768L50.6341 10.9154H46.7592ZM76.4636 11.7373C74.2329 11.7373 74.2329 10.9154 74.2329 10.9154C76.1444 10.9154 77.8391 8.13065 77.8391 5.27952C77.8391 2.42838 75.0548 0 72.8232 0H60.3443V17.608H66.6851V11.7377C66.6851 11.7377 69.385 14.9077 70.7939 16.1991C72.2032 17.4906 72.3201 17.608 74.2325 17.608H84.1859V11.7377C84.1868 11.7373 78.6943 11.7373 76.4636 11.7373ZM70.7103 7.62808H66.6861V4.45768H70.7103C72.5554 4.45768 72.8747 7.62808 70.7103 7.62808ZM0 19.8382H6.48698L8.13065 25.7094L9.65691 19.8382H16.4669L18.2279 25.7094L19.9895 19.8382H25.6249L20.4586 37.4504H15.2928L13.0292 29.1137L10.4787 37.4504H5.19552L0 19.8382ZM38.9381 19.9398H29.6626L24.4634 37.5473H30.2497L31.1889 35.0823H37.2944L38.2007 37.5473H43.8696L38.9381 19.9398ZM32.4808 30.8548L34.4767 24.397L36.3552 30.8548H32.4808ZM76.5806 25.1224C75.5249 25.1224 74.3735 25.2458 75.6325 26.4194L77.8293 29.0222C79.2721 30.6464 79.2489 31.3235 79.2489 32.5523C79.2489 35.6048 76.2288 37.4504 74.2329 37.4504L60.3597 37.5436C58.4482 37.5436 58.3313 37.4267 56.922 36.1352C55.5136 34.8438 52.8128 31.6734 52.8128 31.6734V37.5436H46.4729V19.9361H58.9517C61.1824 19.9361 63.9677 22.365 63.9677 25.2156C63.9677 28.0672 62.2729 30.8515 60.3606 30.8515C60.3606 30.8515 61.2014 31.697 62.6103 31.697C64.0196 31.697 69.4444 31.7026 69.4444 31.7026C69.7915 31.7026 73.251 32.2799 70.9372 30.1763C68.4003 27.8695 68.1195 25.9502 68.0351 24.424C67.9506 22.8977 69.2704 19.8387 72.322 19.8387H84.1878V25.1228L76.5806 25.1224ZM56.8375 27.5637H52.8123V24.3933H56.8375C58.683 24.3933 59.0018 27.5637 56.8375 27.5637Z" fill="black"/>
</svg>
