<?xml version="1.0" encoding="UTF-8" standalone="no"?>
<!-- Created with Inkscape (http://www.inkscape.org/) -->

<svg
   version="1.1"
   id="svg2"
   width="1122.52"
   height="793.70667"
   viewBox="0 0 1122.52 793.70667"
   sodipodi:docname="star_wars_logo.eps"
   xmlns:inkscape="http://www.inkscape.org/namespaces/inkscape"
   xmlns:sodipodi="http://sodipodi.sourceforge.net/DTD/sodipodi-0.dtd"
   xmlns="http://www.w3.org/2000/svg"
   xmlns:svg="http://www.w3.org/2000/svg">
  <defs
     id="defs6" />
  <sodipodi:namedview
     id="namedview4"
     pagecolor="#ffffff"
     bordercolor="#000000"
     borderopacity="0.25"
     inkscape:showpageshadow="2"
     inkscape:pageopacity="0.0"
     inkscape:pagecheckerboard="0"
     inkscape:deskcolor="#d1d1d1" />
  <g
     id="g8"
     inkscape:groupmode="layer"
     inkscape:label="ink_ext_XXXXXX"
     transform="matrix(1.3333333,0,0,-1.3333333,0,793.70667)">
    <g
       id="g10"
       transform="scale(0.1)">
      <path
         d="m 1806.81,4209.22 c -28.76,21.99 -58.14,108.2 30.99,110.34 229.69,5.56 768.71,-2.14 768.72,-2.14 l 11.42,-1223.84 586.91,11.41 v 1214.1 H 3899 l 11.41,492.79 -2277.06,-2.64 c 0,0 -495.12,26.86 -588.57,-256.88 -51.014,-154.88 -85.323,-292.13 109.12,-509.45 180.92,-202.17 314.07,-343.13 314.07,-343.13 H 250.316 v -592.15 c 0,0 1338.954,8.81 1578.414,8.81 297.4,0 692.46,339.57 280.71,819.96 -75.58,88.17 -256.61,237.63 -302.63,272.82 z"
         style="fill:none;stroke:#000000;stroke-width:100;stroke-linecap:round;stroke-linejoin:round;stroke-miterlimit:4;stroke-dasharray:none;stroke-opacity:1"
         id="path12" />
      <path
         d="m 2577.9,1160.56 h 651.01 l 109.13,297.38 h 576.4 l 105.57,-297.38 668.64,-11.42 -614.08,1727.1 h -893.1 z"
         style="fill:none;stroke:#000000;stroke-width:100;stroke-linecap:round;stroke-linejoin:round;stroke-miterlimit:4;stroke-dasharray:none;stroke-opacity:1"
         id="path14" />
      <path
         d="m 3418.11,1789.66 209.44,627.39 232.31,-627.39 z"
         style="fill:none;stroke:#000000;stroke-width:100;stroke-linecap:round;stroke-linejoin:round;stroke-miterlimit:4;stroke-dasharray:none;stroke-opacity:1"
         id="path16" />
      <path
         d="m 227.441,2887.7 h 663.391 l 194.438,-697.72 194.45,686.25 h 606.21 l 194.43,-697.69 183.01,709.16 h 651.96 L 2354.87,1172.02 H 1785.6 l -217.31,732 -242.83,-734.64 H 776.441 Z"
         style="fill:none;stroke:#000000;stroke-width:100;stroke-linecap:round;stroke-linejoin:round;stroke-miterlimit:4;stroke-dasharray:none;stroke-opacity:1"
         id="path18" />
      <path
         d="m 5831.99,3079.5 -11.46,1741.18 h 857.84 c 0,0 330.12,18.27 491.83,-57.21 171.57,-80.05 211.8,-147.8 285.95,-251.62 114.37,-160.13 114.37,-514.7 -80.08,-686.27 -194.42,-171.57 -217.3,-171.57 -217.3,-171.57 h 1052.28 v -580.69 h -812.09 c 0,0 -385.31,-20.27 -556.87,151.31 -171.58,171.56 -381.04,417.94 -381.04,417.94 v -571.88 z"
         style="fill:none;stroke:#000000;stroke-width:100;stroke-linecap:round;stroke-linejoin:round;stroke-miterlimit:4;stroke-dasharray:none;stroke-opacity:1"
         id="path20" />
      <path
         d="m 4819.75,1152.7 -11.46,1727.12 h 857.85 c 0,0 327.56,12.59 491.82,-57.21 142.95,-60.72 211.8,-147.79 285.95,-251.61 114.38,-160.14 114.38,-514.71 -80.08,-686.29 -194.42,-171.55 -217.3,-171.55 -217.3,-171.55 l 1115.16,-3.57 -391.48,400.32 c 0,0 -134.64,111.75 -146.08,294.77 -11.44,183 34.31,265.71 125.83,368.64 91.49,102.93 395.06,114.38 395.06,114.38 h 966.04 v -549.04 h -732.04 c 0,0 -69.73,-10.32 -11.43,-68.62 114.37,-114.38 324.52,-346.34 411.76,-446.06 80.04,-91.52 117,-228.8 117,-285.98 0,-57.16 5.25,-260.43 -246.39,-374.79 -46.2,-21.01 -316.68,-36.96 -453.94,-36.96 H 6323.8 c 0,0 -294.27,-14.05 -465.84,157.5 -171.57,171.59 -409.14,417.96 -409.14,417.96 v -543.76 z"
         style="fill:none;stroke:#000000;stroke-width:100;stroke-linecap:round;stroke-linejoin:round;stroke-miterlimit:4;stroke-dasharray:none;stroke-opacity:1"
         id="path22" />
      <path
         d="m 5414.49,2090.61 v 354.57 l 354.58,-2.61 c 0,0 228.77,25.48 228.77,-180.39 0,-160.13 -137.26,-171.57 -228.77,-171.57 z"
         style="fill:none;stroke:#000000;stroke-width:100;stroke-linecap:round;stroke-linejoin:round;stroke-miterlimit:4;stroke-dasharray:none;stroke-opacity:1"
         id="path24" />
      <path
         d="m 3604.69,3093.57 h 651.02 l 109.12,297.39 h 576.4 l 105.59,-311.46 668.62,2.64 -614.05,1727.09 h -893.12 z"
         style="fill:none;stroke:#000000;stroke-width:100;stroke-linecap:round;stroke-linejoin:round;stroke-miterlimit:4;stroke-dasharray:none;stroke-opacity:1"
         id="path26" />
      <path
         d="m 4444.89,3722.66 209.45,627.39 232.32,-627.39 z"
         style="fill:none;stroke:#000000;stroke-width:100;stroke-linecap:round;stroke-linejoin:round;stroke-miterlimit:4;stroke-dasharray:none;stroke-opacity:1"
         id="path28" />
      <path
         d="m 6437.71,4057.93 v 354.57 l 354.56,-2.64 c 0,0 228.78,25.51 228.78,-180.36 0,-160.14 -137.25,-171.57 -228.78,-171.57 z"
         style="fill:none;stroke:#000000;stroke-width:100;stroke-linecap:round;stroke-linejoin:round;stroke-miterlimit:4;stroke-dasharray:none;stroke-opacity:1"
         id="path30" />
    </g>
  </g>
</svg>
